<?xml version="1.0" standalone="no"?>
<!DOCTYPE svg PUBLIC "-//W3C//DTD SVG 20010904//EN"
 "http://www.w3.org/TR/2001/REC-SVG-20010904/DTD/svg10.dtd">
<svg version="1.0" xmlns="http://www.w3.org/2000/svg"
 width="284.000000pt" height="328.000000pt" viewBox="0 0 284.000000 328.000000"
 preserveAspectRatio="xMidYMid meet">

<g transform="translate(0.000000,328.000000) scale(0.100000,-0.100000)"
fill="currentColor" stroke="none">
<path d="M1323 2869 c-67 -11 -159 -48 -215 -87 -52 -35 -125 -112 -157 -166
-32 -51 -22 -56 108 -56 100 0 107 1 165 34 155 87 290 87 371 0 l34 -36 110
4 c60 1 113 6 116 10 10 10 -53 131 -92 177 -83 98 -269 149 -440 120z"/>
<path d="M643 2332 l-203 -2 0 -48 c0 -26 -5 -150 -10 -277 -8 -201 -16 -422
-46 -1242 l-6 -182 27 -25 c15 -14 48 -36 74 -48 l46 -23 880 -3 c794 -3 887
-1 948 14 80 19 124 52 132 98 4 18 -3 113 -14 212 -22 193 -30 312 -61 904
-12 212 -24 439 -28 505 l-7 120 -765 0 c-421 0 -856 -1 -967 -3z"/>
</g>
</svg>
