<?xml version="1.0" standalone="no"?>
<!DOCTYPE svg PUBLIC "-//W3C//DTD SVG 20010904//EN"
 "http://www.w3.org/TR/2001/REC-SVG-20010904/DTD/svg10.dtd">
<svg version="1.0" xmlns="http://www.w3.org/2000/svg"
 width="412.000000pt" height="456.000000pt" viewBox="0 0 412.000000 456.000000"
 preserveAspectRatio="xMidYMid meet">

<g transform="translate(0.000000,456.000000) scale(0.100000,-0.100000)"
fill="currentColor" stroke="none">
<path d="M2377 4237 c-21 -17 -41 -59 -82 -174 -77 -214 -72 -269 26 -280 42
-5 47 -3 76 30 23 26 43 73 76 179 25 78 47 154 51 168 8 38 -25 86 -64 94
-48 9 -52 8 -83 -17z"/>
<path d="M1684 4200 c-26 -10 -64 -57 -64 -79 0 -24 83 -204 131 -283 54 -90
76 -105 129 -89 42 13 70 50 70 94 0 32 -136 295 -173 335 -31 32 -54 38 -93
22z"/>
<path d="M2830 3724 c-47 -19 -108 -44 -136 -55 -29 -12 -68 -34 -88 -51 -30
-25 -36 -36 -36 -68 0 -58 35 -95 88 -93 48 2 300 108 349 147 27 22 33 33 33
67 0 29 -7 47 -25 64 -34 35 -82 32 -185 -11z"/>
<path d="M1276 3717 c-49 -49 -44 -106 14 -149 44 -32 286 -118 333 -118 61 1
97 36 97 95 0 47 -45 77 -200 134 -184 68 -210 72 -244 38z"/>
<path d="M2073 3671 c-98 -45 -120 -90 -368 -756 -119 -319 -237 -635 -262
-702 -25 -68 -52 -128 -60 -134 -21 -18 -54 18 -136 150 -122 192 -214 270
-321 271 -71 0 -121 -18 -172 -63 -81 -71 -110 -168 -93 -312 9 -80 98 -403
249 -905 104 -343 147 -456 222 -579 75 -124 194 -239 333 -323 76 -46 232
-106 310 -119 33 -6 83 -14 110 -19 111 -19 237 -12 361 20 216 56 320 116
492 283 155 151 226 246 271 361 42 105 215 582 235 646 91 294 96 327 53 383
-61 80 -132 111 -246 106 -36 -2 -71 0 -77 4 -7 4 -13 50 -16 114 -5 122 -16
152 -74 203 -65 57 -116 74 -205 67 -89 -7 -79 -17 -108 108 -24 99 -42 138
-84 182 -45 48 -112 67 -214 60 -72 -4 -83 -3 -83 12 0 9 41 135 91 281 101
297 104 306 126 407 15 68 15 76 -2 119 -23 60 -65 107 -119 133 -56 27 -155
28 -213 2z"/>
<path d="M2593 3245 c-31 -13 -53 -55 -53 -100 0 -44 80 -90 266 -154 116 -39
147 -40 185 -2 31 31 35 53 19 95 -13 35 -42 51 -188 108 -161 62 -191 69
-229 53z"/>
</g>
</svg>
