<?xml version="1.0" standalone="no"?>
<!DOCTYPE svg PUBLIC "-//W3C//DTD SVG 20010904//EN"
 "http://www.w3.org/TR/2001/REC-SVG-20010904/DTD/svg10.dtd">
<svg version="1.0" xmlns="http://www.w3.org/2000/svg"
 width="236.000000pt" height="176.000000pt" viewBox="0 0 236.000000 176.000000"
 preserveAspectRatio="xMidYMid meet">

<g transform="translate(0.000000,176.000000) scale(0.100000,-0.100000)"
fill="#000000" stroke="none">
<path d="M122 1638 c-16 -16 -16 -110 0 -126 17 -17 2119 -17 2136 0 16 16 16
110 0 126 -17 17 -2119 17 -2136 0z"/>
<path d="M383 1423 l-173 -3 0 -625 0 -625 -65 0 -65 0 0 -70 0 -70 1105 0
1106 0 -3 68 -3 67 -62 3 -63 3 0 629 0 630 -802 -2 c-442 -1 -881 -4 -975 -5z
m787 -938 l0 -305 -215 0 -215 0 0 305 0 305 215 0 215 0 0 -305z m460 0 l0
-305 -205 0 -205 0 0 305 0 305 205 0 205 0 0 -305z"/>
<path d="M1090 540 c0 -29 4 -40 15 -40 11 0 15 11 15 40 0 29 -4 40 -15 40
-11 0 -15 -11 -15 -40z"/>
<path d="M1270 540 c0 -29 4 -40 15 -40 11 0 15 11 15 40 0 29 -4 40 -15 40
-11 0 -15 -11 -15 -40z"/>
</g>
</svg>
