<?xml version="1.0" standalone="no"?>
<!DOCTYPE svg PUBLIC "-//W3C//DTD SVG 20010904//EN"
 "http://www.w3.org/TR/2001/REC-SVG-20010904/DTD/svg10.dtd">
<svg version="1.0" xmlns="http://www.w3.org/2000/svg"
 width="284.000000pt" height="328.000000pt" viewBox="0 0 284.000000 328.000000"
 preserveAspectRatio="xMidYMid meet">

<g transform="translate(0.000000,328.000000) scale(0.100000,-0.100000)"
fill="currentColor" stroke="none">
<path d="M433 3093 c-54 -10 -133 -125 -173 -251 -37 -114 -49 -205 -30 -228
39 -46 136 -65 560 -110 163 -17 307 -37 555 -78 83 -13 211 -32 285 -41 170
-21 297 -41 424 -66 146 -29 143 -31 183 76 19 50 38 101 43 115 4 14 44 100
89 191 44 91 81 171 81 177 0 8 -34 12 -112 12 -117 1 -166 3 -403 20 -368 27
-473 40 -1000 129 -155 26 -423 61 -455 60 -14 -1 -35 -4 -47 -6z"/>
<path d="M2515 2780 c-19 -37 -19 -58 1 -105 17 -41 17 -43 -22 -260 -32 -173
-38 -190 -79 -209 -40 -19 -38 -9 -70 -380 -14 -155 -36 -389 -49 -521 -14
-132 -34 -352 -46 -490 -12 -137 -28 -297 -36 -355 -17 -130 -18 -220 -3 -220
17 0 74 36 179 115 52 39 124 91 159 116 35 24 73 56 84 71 29 40 32 146 13
449 -9 140 -19 295 -22 344 -3 50 -9 351 -14 670 -5 319 -14 615 -19 659 -18
141 -43 180 -76 116z"/>
<path d="M2393 2507 c-39 -89 -56 -144 -49 -156 3 -5 -1 -14 -9 -21 -16 -13
-21 -40 -7 -40 4 0 19 13 35 29 21 21 32 50 48 122 12 52 23 104 26 117 11 47
-13 19 -44 -51z"/>
<path d="M397 2463 c-2 -4 -8 -39 -11 -78 -12 -116 -55 -454 -71 -550 -8 -49
-26 -180 -40 -290 -40 -323 -73 -569 -79 -585 -11 -30 -56 -372 -56 -426 0
-30 4 -64 10 -74 18 -34 131 -58 425 -90 55 -6 161 -22 235 -35 74 -14 241
-38 370 -54 129 -17 294 -40 365 -51 239 -39 329 -50 423 -50 87 0 93 1 101
23 15 39 30 147 51 367 37 388 51 523 70 685 28 231 74 905 63 916 -27 27
-730 147 -1228 209 -208 26 -419 56 -592 85 -17 3 -33 2 -36 -2z"/>
</g>
</svg>
