<?xml version="1.0" standalone="no"?>
<!DOCTYPE svg PUBLIC "-//W3C//DTD SVG 20010904//EN"
 "http://www.w3.org/TR/2001/REC-SVG-20010904/DTD/svg10.dtd">
<svg version="1.0" xmlns="http://www.w3.org/2000/svg"
 width="284.000000pt" height="328.000000pt" viewBox="0 0 284.000000 328.000000"
 preserveAspectRatio="xMidYMid meet">

<g transform="translate(0.000000,328.000000) scale(0.100000,-0.100000)"
fill="currentColor" stroke="none">
<path d="M1282 2830 c-215 -57 -373 -211 -433 -425 -23 -83 -18 -237 11 -325
31 -96 109 -211 183 -271 328 -264 799 -129 938 271 27 79 32 245 10 325 -43
153 -157 299 -289 368 -140 74 -282 93 -420 57z"/>
<path d="M1285 1489 c-180 -19 -338 -73 -540 -185 -155 -87 -226 -135 -299
-203 -173 -165 -161 -327 36 -491 91 -75 204 -135 304 -160 72 -19 113 -20
628 -20 617 0 632 2 771 68 137 66 280 197 315 288 7 16 12 55 12 87 0 145
-114 263 -417 431 -209 116 -357 165 -556 186 -112 11 -138 11 -254 -1z"/>
</g>
</svg>
