<?xml version="1.0" standalone="no"?>
<!DOCTYPE svg PUBLIC "-//W3C//DTD SVG 20010904//EN"
 "http://www.w3.org/TR/2001/REC-SVG-20010904/DTD/svg10.dtd">
<svg version="1.0" xmlns="http://www.w3.org/2000/svg"
 width="544.000000pt" height="401.000000pt" viewBox="0 0 544.000000 401.000000"
 preserveAspectRatio="xMidYMid meet">

<g transform="translate(0.000000,401.000000) scale(0.100000,-0.100000)"
fill="currentColor" stroke="none">
<path d="M3985 3441 c-127 -33 -171 -46 -505 -148 -217 -66 -359 -107 -815
-239 -337 -98 -978 -259 -1345 -339 -440 -95 -455 -101 -571 -219 -41 -42 -78
-76 -84 -76 -5 0 -35 16 -65 35 -62 40 -100 44 -147 15 -58 -35 -75 -94 -52
-185 16 -63 3 -80 -79 -104 -147 -44 -180 -153 -81 -272 21 -25 41 -57 44 -71
9 -36 -17 -81 -68 -116 -63 -45 -88 -76 -94 -119 -4 -32 0 -45 21 -70 14 -17
43 -38 65 -46 50 -20 56 -45 24 -104 -18 -35 -24 -58 -20 -88 3 -30 -1 -45
-16 -62 -41 -46 -33 -172 16 -244 34 -51 79 -59 152 -25 32 14 59 25 60 24 2
-2 -2 -27 -8 -55 -21 -102 38 -161 147 -148 69 9 83 -7 96 -110 12 -94 40
-138 101 -156 36 -11 46 -10 104 14 110 45 130 37 164 -66 25 -74 63 -115 114
-124 44 -7 85 8 150 55 57 41 64 40 211 -19 147 -59 200 -56 276 17 26 24 58
40 120 58 432 125 1815 781 2890 1369 408 223 468 266 511 356 27 56 37 193
20 270 -27 127 -123 299 -245 441 -42 49 -58 77 -66 115 -15 69 -50 124 -119
187 -154 139 -469 262 -698 274 -86 4 -112 1 -208 -25z m593 -389 c97 -54 119
-72 88 -72 -32 0 -228 75 -652 251 -211 86 -202 79 -119 104 l70 21 255 -124
c140 -68 301 -149 358 -180z m-737 62 c324 -154 595 -292 610 -311 7 -7 9 -16
6 -19 -10 -10 -186 56 -502 189 -408 172 -501 214 -497 224 2 8 87 41 108 42
6 1 130 -56 275 -125z m-401 -125 c311 -143 720 -347 720 -359 0 -34 -179 32
-785 290 -126 54 -257 111 -290 126 l-60 27 65 22 c77 25 44 35 350 -106z
m-185 -206 c256 -121 476 -231 506 -253 39 -30 15 -34 -58 -10 -136 45 -676
267 -1008 415 l-60 27 70 22 70 22 145 -67 c80 -37 231 -107 335 -156z m1562
96 c-6 -53 -40 -120 -75 -152 -18 -17 -17 -11 8 52 16 39 35 89 41 111 17 57
33 50 26 -11z m-2163 -115 c314 -147 676 -327 708 -355 l23 -18 -22 -1 c-44 0
-292 98 -858 340 -315 134 -292 120 -220 140 33 10 68 18 79 19 10 0 141 -56
290 -125z m-392 -110 c343 -164 644 -317 678 -343 98 -76 -123 6 -777 289
-183 79 -333 147 -333 150 0 6 107 36 137 39 6 0 139 -60 295 -135z m-644 26
c9 -5 170 -84 357 -175 346 -169 545 -273 545 -287 0 -14 -26 -9 -112 22 -157
55 -982 410 -973 418 6 7 110 30 138 31 15 1 35 -3 45 -9z m-168 -170 c74 -22
162 -50 195 -63 72 -29 184 -86 169 -87 -17 0 -276 87 -385 130 -180 71 -173
77 21 20z m-490 -5 l45 -23 -28 -11 c-16 -6 -30 -11 -33 -11 -2 0 -33 -13 -67
-30 -64 -30 -107 -38 -107 -21 0 11 127 121 138 121 4 -1 27 -12 52 -25z
m3583 -16 c-10 -17 -35 -46 -55 -63 -43 -37 -134 -89 -147 -84 -12 4 189 178
206 178 11 0 10 -7 -4 -31z m-3465 -95 c4 -27 -26 -40 -46 -20 -13 13 -13 18
-2 31 18 21 44 15 48 -11z m-537 -64 c24 -11 54 -20 67 -20 12 0 22 -4 22 -10
0 -29 -128 6 -138 38 -5 16 -2 15 49 -8z m339 -38 c0 -11 9 -27 20 -37 20 -18
54 -18 157 1 l32 6 -6 -64 c-5 -58 -3 -67 18 -92 35 -40 84 -37 182 9 73 35
78 36 102 21 22 -14 45 -68 45 -105 0 -8 -29 -45 -65 -82 -36 -37 -65 -76 -65
-87 0 -25 37 -72 57 -72 8 0 47 26 86 58 65 53 77 59 120 60 26 0 47 -2 47 -5
0 -2 -15 -24 -33 -48 -32 -42 -34 -48 -33 -124 1 -44 5 -83 8 -86 4 -4 12 11
19 34 14 47 30 51 63 16 23 -25 36 -24 36 3 0 8 24 46 53 86 30 39 66 90 82
114 15 23 30 42 32 42 8 0 33 -70 33 -93 0 -16 -12 -31 -37 -48 -27 -17 -44
-39 -58 -74 -30 -73 -31 -75 -85 -75 -37 0 -55 -6 -78 -25 -25 -21 -40 -25
-94 -25 -36 0 -72 -6 -81 -12 -10 -7 -25 -35 -35 -63 -15 -42 -24 -53 -61 -71
-54 -26 -71 -48 -71 -90 0 -21 -12 -46 -35 -75 -41 -51 -44 -87 -14 -136 16
-26 20 -44 16 -76 -7 -48 5 -74 37 -87 17 -6 24 -16 24 -36 0 -18 8 -34 21
-44 13 -8 45 -34 72 -58 53 -45 88 -52 156 -33 25 7 42 4 83 -15 63 -29 70
-29 118 -4 24 13 46 18 64 14 41 -8 91 12 126 51 25 29 37 35 70 35 22 0 48 3
57 6 14 6 14 0 -5 -36 -25 -48 -45 -68 -108 -107 -39 -23 -49 -25 -105 -19
-157 18 -161 18 -197 -1 -35 -18 -36 -18 -69 4 -18 12 -50 25 -70 28 -20 3
-51 10 -69 16 -29 9 -40 6 -109 -32 -47 -25 -79 -37 -81 -30 -2 6 -38 66 -81
134 -193 308 -400 528 -632 671 l-62 38 31 30 c18 16 32 36 32 44 0 17 1 17
36 -1 16 -8 39 -15 52 -15 12 0 32 -12 45 -26 25 -29 68 -54 92 -54 9 0 46 12
83 26 78 32 107 33 153 5 42 -26 66 -26 104 -1 17 11 44 20 62 20 18 0 49 8
68 17 36 17 38 17 75 -5 48 -27 54 -27 113 0 42 20 50 29 68 77 11 29 18 56
15 58 -12 12 -46 -21 -62 -61 -11 -26 -27 -47 -38 -50 -11 -3 -44 9 -77 27
l-58 32 -43 -23 c-25 -12 -61 -22 -84 -22 -26 0 -47 -6 -55 -16 -14 -18 -37
-15 -112 12 -48 17 -49 17 -126 -10 -43 -14 -84 -26 -91 -26 -7 0 -28 13 -46
30 -19 16 -52 34 -74 40 -32 9 -43 18 -58 53 -11 23 -33 55 -51 71 -37 35 -38
47 -10 93 21 34 22 78 4 140 -6 18 -1 26 25 40 61 34 78 52 85 92 9 54 25 65
83 57 45 -6 52 -4 95 30 26 20 47 41 47 45 0 5 5 9 10 9 6 0 10 -8 10 -18z
m383 -26 c7 -18 -1 -26 -25 -26 -18 0 -25 20 -11 33 11 12 31 8 36 -7z m365
-113 c4 -43 -28 -62 -64 -38 -27 17 -29 27 -13 56 8 15 19 19 42 17 28 -3 32
-7 35 -35z m2412 -17 c-26 -24 -112 -47 -195 -51 -44 -3 -75 -3 -70 0 10 5
253 63 270 64 5 1 3 -5 -5 -13z m-775 -17 c102 -14 215 -41 215 -52 0 -15
-148 0 -308 31 -78 15 -139 31 -135 35 7 8 116 1 228 -14z m1935 15 c0 -11
-206 -102 -323 -143 -258 -90 -502 -140 -809 -166 -455 -39 -894 5 -1554 156
-101 23 -186 40 -188 38 -2 -2 2 -51 10 -109 16 -124 18 -378 4 -540 -27 -302
-116 -566 -237 -699 -47 -52 -140 -121 -165 -121 -21 0 24 74 82 137 75 81
124 166 169 298 84 249 123 674 87 965 -8 63 -13 117 -10 121 2 4 17 4 32 -1
94 -32 641 -129 862 -154 393 -44 841 -46 1145 -7 288 38 648 129 845 215 38
17 50 19 50 10z m-3212 -118 c2 -10 -1 -23 -6 -28 -15 -15 -52 1 -52 22 0 33
52 39 58 6z m-498 -96 c0 -3 -30 -27 -66 -54 -63 -47 -68 -48 -80 -31 -8 10
-14 22 -14 26 0 4 23 34 52 68 l52 60 28 -32 c15 -18 27 -34 28 -37z m-1111
-40 c5 -19 10 -66 10 -103 0 -49 4 -74 15 -86 20 -22 20 -31 1 -31 -33 0 -55
60 -55 150 0 68 -4 91 -20 115 -29 44 -24 53 10 20 17 -16 34 -45 39 -65z
m1434 73 c3 -5 -33 -52 -79 -105 -82 -95 -85 -97 -114 -86 -17 5 -30 12 -30
15 0 10 66 100 103 141 33 35 46 42 78 42 21 0 40 -3 42 -7z m345 -128 c16
-20 42 -39 58 -44 24 -6 29 -13 32 -44 3 -33 -6 -47 -92 -153 -114 -141 -129
-180 -100 -252 14 -32 34 -58 67 -82 55 -41 57 -55 28 -151 -14 -44 -32 -74
-63 -106 -37 -38 -48 -43 -85 -43 -37 0 -50 -6 -90 -43 -44 -40 -49 -42 -108
-42 -46 0 -68 -5 -82 -18 -19 -17 -22 -16 -78 9 -53 25 -63 26 -102 16 -67
-18 -83 -15 -129 28 -24 22 -48 40 -54 40 -5 0 -10 11 -10 25 0 25 -25 58 -51
67 -9 3 -12 20 -10 52 1 33 -4 57 -19 80 -27 44 -25 57 10 91 17 17 32 43 36
64 10 63 14 68 56 87 34 15 45 28 69 81 l28 63 68 0 c58 0 72 4 97 25 23 20
40 25 81 25 61 0 87 21 104 86 6 22 22 51 36 64 23 22 25 22 31 4 20 -63 43
-84 94 -84 30 0 76 55 90 107 26 95 41 104 88 48z m-1714 -420 l6 -40 -20 24
c-20 23 -27 80 -13 95 8 8 16 -15 27 -79z m286 -94 c43 -40 59 -60 48 -61 -10
0 -48 -13 -85 -29 -165 -72 -382 -161 -393 -161 -7 0 -10 14 -8 37 3 42 -14
33 258 139 80 31 147 59 150 61 2 2 -1 8 -8 12 -8 5 -92 -22 -209 -66 -108
-41 -202 -72 -210 -69 -37 15 -2 38 172 111 111 47 185 84 185 92 0 20 25 4
100 -66z m97 -233 c20 -21 23 -28 11 -28 -23 0 -55 31 -62 61 -7 34 6 47 17
17 4 -13 20 -35 34 -50z m-164 -63 c7 -46 24 -81 61 -122 27 -32 13 -40 -24
-13 -41 29 -60 69 -60 130 0 62 15 66 23 5z m325 8 c57 -73 132 -198 121 -202
-7 -2 -19 6 -28 18 -16 21 -17 21 -84 -40 -74 -67 -97 -71 -97 -16 0 29 9 42
60 86 33 29 58 57 55 62 -10 15 -18 11 -75 -36 -30 -25 -60 -45 -67 -45 -14 0
-43 39 -43 57 0 6 27 33 61 59 50 40 59 52 54 71 -8 34 9 28 43 -14z m562
-393 c12 -8 11 -10 -8 -10 -13 0 -55 -14 -95 -31 -57 -24 -82 -30 -120 -26
-66 6 -81 24 -20 23 32 0 66 9 103 26 57 28 114 35 140 18z"/>
<path d="M920 2155 c0 -25 27 -72 45 -79 23 -9 65 -7 65 2 0 4 -15 14 -34 20
-22 8 -39 24 -48 42 -14 32 -28 39 -28 15z"/>
<path d="M745 2112 c-13 -24 -35 -44 -65 -59 l-45 -22 37 -1 c43 0 92 36 102
76 11 43 -7 47 -29 6z"/>
<path d="M840 2010 c-20 -20 -26 -54 -14 -84 10 -27 24 -18 24 16 0 21 9 41
27 60 26 27 26 28 5 28 -12 0 -31 -9 -42 -20z"/>
<path d="M1210 1994 c0 -14 -5 -34 -10 -45 -8 -14 -7 -19 3 -19 18 0 37 43 30
69 -8 29 -23 26 -23 -5z"/>
<path d="M670 1911 c0 -11 -11 -28 -26 -37 -37 -25 -56 -67 -44 -98 13 -35 54
-60 85 -52 34 9 32 26 -3 26 -59 0 -71 58 -22 105 30 29 39 59 20 70 -5 3 -10
-3 -10 -14z"/>
<path d="M944 1855 c-26 -18 -47 -65 -42 -96 5 -38 25 -32 32 10 3 22 18 53
32 70 28 33 15 43 -22 16z"/>
<path d="M1245 1755 c-18 -9 -44 -12 -65 -8 -32 6 -34 5 -21 -10 25 -31 111
-18 125 18 6 18 1 18 -39 0z"/>
<path d="M1013 1703 c9 -9 19 -14 23 -11 10 10 -6 28 -24 28 -15 0 -15 -1 1
-17z"/>
<path d="M740 1690 c0 -5 5 -10 10 -10 6 0 10 5 10 10 0 6 -4 10 -10 10 -5 0
-10 -4 -10 -10z"/>
<path d="M1178 1495 c-9 -21 -8 -28 7 -45 23 -25 40 -25 65 0 24 24 25 34 4
54 -24 25 -63 20 -76 -9z"/>
<path d="M884 1496 c-11 -28 1 -51 25 -51 28 0 47 25 38 49 -8 20 -56 21 -63
2z"/>
<path d="M1030 1305 c-15 -18 -5 -35 20 -35 23 0 32 13 24 34 -8 20 -28 21
-44 1z"/>
<path d="M2138 1719 c-10 -5 -18 -16 -18 -23 0 -11 7 -10 35 3 19 9 34 19 35
24 0 10 -32 8 -52 -4z"/>
<path d="M2087 1565 c-35 -31 -89 -33 -135 -5 -49 30 -68 25 -30 -9 43 -37 71
-51 101 -51 31 0 88 39 98 68 11 28 1 28 -34 -3z"/>
<path d="M1548 1479 c-28 -16 -21 -25 16 -21 18 2 44 -1 56 -8 30 -16 36 -6
11 19 -23 23 -55 27 -83 10z"/>
<path d="M1920 1383 c0 -5 7 -17 15 -27 9 -11 15 -42 15 -70 1 -47 2 -49 15
-32 23 31 19 89 -8 114 -24 23 -37 28 -37 15z"/>
<path d="M1397 1332 c-21 -23 -22 -72 -2 -98 13 -18 14 -17 15 18 0 54 8 68
41 68 34 0 38 15 7 24 -35 9 -44 7 -61 -12z"/>
<path d="M1628 1219 c-31 -17 -20 -24 39 -24 32 0 67 -4 78 -9 17 -8 17 -6 -4
17 -26 29 -79 36 -113 16z"/>
<path d="M2106 1195 c-5 -16 -16 -38 -24 -48 -22 -25 -5 -35 19 -10 15 14 19
30 17 54 l-4 34 -8 -30z"/>
<path d="M1441 1067 c-1 -30 38 -77 64 -77 21 0 19 4 -12 37 -16 16 -33 38
-40 48 -11 19 -12 18 -12 -8z"/>
<path d="M1769 1062 c-27 -24 -32 -37 -36 -83 l-4 -54 14 36 c19 50 54 97 77
104 11 4 20 11 20 16 0 19 -41 8 -71 -19z"/>
</g>
</svg>
