<?xml version="1.0" standalone="no"?>
<!DOCTYPE svg PUBLIC "-//W3C//DTD SVG 20010904//EN"
 "http://www.w3.org/TR/2001/REC-SVG-20010904/DTD/svg10.dtd">
<svg version="1.0" xmlns="http://www.w3.org/2000/svg"
 width="944.000000pt" height="538.000000pt" viewBox="0 0 944.000000 538.000000"
 preserveAspectRatio="xMidYMid meet">

<g transform="translate(0.000000,538.000000) scale(0.100000,-0.100000)"
fill="#000000" stroke="none">
<path d="M2700 4726 c-85 -24 -145 -60 -211 -125 -72 -72 -105 -127 -125 -211
-15 -62 -18 -188 -5 -208 6 -11 95 -13 452 -13 244 0 447 0 452 1 11 0 8 193
-4 231 -53 165 -164 274 -328 323 -64 19 -167 19 -231 2z"/>
<path d="M5531 4645 c-113 -32 -222 -118 -272 -216 -50 -99 -62 -267 -25 -345
8 -16 22 -46 31 -67 10 -20 41 -61 69 -90 109 -110 263 -158 400 -123 95 23
152 55 215 117 211 210 153 566 -114 694 -61 30 -86 36 -161 40 -63 4 -105 1
-143 -10z"/>
<path d="M6847 4493 c-4 -3 -7 -77 -7 -164 0 -115 3 -160 13 -166 16 -11 606
-13 634 -2 22 8 23 12 23 158 0 82 -3 156 -6 165 -5 14 -44 16 -328 16 -178 0
-326 -3 -329 -7z"/>
<path d="M7153 4113 c-10 -4 -13 -93 -13 -399 l0 -395 33 3 32 3 3 384 c2 420
2 427 -55 404z"/>
<path d="M2200 4076 c-179 -33 -344 -175 -407 -351 -33 -93 -63 -354 -63 -552
0 -283 79 -482 225 -568 50 -30 164 -60 177 -47 5 5 9 204 8 479 0 508 -1 499
52 491 l23 -3 5 -1505 5 -1505 27 -47 c34 -57 68 -84 122 -99 81 -22 166 2
218 63 59 68 58 54 58 965 l0 833 23 5 c12 3 96 4 187 3 l165 -3 5 -850 c5
-841 5 -851 26 -895 52 -109 143 -151 259 -119 52 15 119 82 134 134 8 28 11
437 11 1408 0 924 3 1375 10 1388 12 21 47 25 71 6 8 -7 48 -68 89 -137 82
-141 140 -204 226 -246 l59 -29 282 -3 c266 -3 284 -2 321 17 70 35 122 119
122 193 0 68 -60 150 -135 184 -48 23 -59 24 -295 24 -135 0 -250 4 -256 8 -6
4 -50 72 -99 152 -221 363 -262 427 -305 470 -75 77 -158 121 -261 139 -92 16
-1000 13 -1089 -3z"/>
<path d="M5525 3705 c-2 -11 -6 -31 -7 -45 -3 -24 -22 -32 -140 -55 -32 -6
-38 -35 -9 -35 52 0 51 6 51 -265 l0 -253 23 -6 c35 -9 400 -7 416 3 14 9 20
38 42 206 6 44 15 112 20 150 5 39 12 98 16 132 l6 62 -39 6 c-22 4 -59 13
-84 20 -43 11 -45 14 -50 54 l-5 42 -118 2 c-111 2 -118 1 -122 -18z"/>
<path d="M6015 3523 c-3 -27 -10 -77 -15 -113 -5 -36 -14 -101 -20 -145 -6
-44 -16 -109 -21 -144 -8 -50 -7 -66 3 -72 7 -5 57 -7 111 -5 104 3 117 9 117
53 0 12 5 25 11 29 16 10 92 -68 174 -181 41 -55 83 -111 94 -125 l20 -25 1
249 0 249 -40 52 c-61 80 -144 153 -197 176 -58 25 -156 49 -200 49 -30 0 -32
-2 -38 -47z"/>
<path d="M4324 3476 c-3 -8 -4 -29 -2 -48 l3 -33 70 -6 c139 -10 235 -68 288
-169 22 -42 27 -65 27 -123 0 -94 -35 -165 -108 -222 -28 -22 -51 -43 -51 -48
-1 -4 178 -6 397 -5 l397 3 3 310 c1 171 0 320 -3 333 l-5 22 -506 0 c-424 0
-505 -2 -510 -14z"/>
<path d="M6567 3273 c-9 -8 -9 -675 -1 -697 6 -14 65 -16 574 -16 l568 0 3 43
c2 24 2 184 -1 357 l-5 315 -566 3 c-311 1 -569 -1 -572 -5z m718 -353 l0 -35
-240 0 -240 0 -3 23 c-7 51 2 53 252 50 l231 -3 0 -35z"/>
<path d="M5427 2963 c-4 -3 -7 -53 -7 -109 l0 -103 -127 -3 -128 -3 2 -70 c1
-38 5 -80 8 -92 l5 -23 460 0 c349 0 461 3 466 12 10 15 62 380 57 391 -5 9
-727 10 -736 0z"/>
<path d="M4555 2736 c-14 -10 -19 -30 -23 -95 l-5 -81 85 0 84 0 37 82 c21 45
36 87 33 95 -7 18 -185 18 -211 -1z"/>
<path d="M3542 2368 l3 -113 2070 -2 c1177 -1 2076 1 2084 6 13 9 16 49 12
189 l-1 32 -2085 0 -2086 0 3 -112z"/>
<path d="M3915 2168 c-3 -7 -4 -416 -3 -908 l3 -895 1720 0 1720 0 3 899 c2
713 0 901 -10 908 -7 4 -782 8 -1721 8 -1357 0 -1709 -3 -1712 -12z"/>
</g>
</svg>
