<?xml version="1.0" standalone="no"?>
<!DOCTYPE svg PUBLIC "-//W3C//DTD SVG 20010904//EN"
 "http://www.w3.org/TR/2001/REC-SVG-20010904/DTD/svg10.dtd">
<svg version="1.0" xmlns="http://www.w3.org/2000/svg"
 width="1250.000000pt" height="1250.000000pt" viewBox="0 0 1250.000000 1250.000000"
 preserveAspectRatio="xMidYMid meet">

<g transform="translate(0.000000,1250.000000) scale(0.100000,-0.100000)"
fill="#000000" stroke="none">
<path d="M7255 12491 c-6 -5 -134 -72 -285 -148 -288 -146 -500 -241 -835
-375 -619 -248 -659 -286 -1148 -1089 -152 -251 -283 -418 -480 -618 -206
-208 -362 -325 -626 -466 -165 -88 -275 -158 -296 -188 -75 -108 136 -231 416
-244 133 -6 209 7 373 64 306 106 537 275 991 724 l240 238 320 21 c355 23
489 39 645 76 307 72 461 155 675 364 141 138 180 164 202 134 17 -23 17 -28
-8 -77 -69 -135 -342 -337 -608 -450 -246 -104 -400 -132 -856 -157 -104 -5
-222 -13 -261 -16 l-72 -5 -93 -107 c-155 -178 -335 -344 -539 -498 -184 -138
-264 -234 -197 -234 29 0 138 53 247 119 164 101 310 161 436 181 150 23 176
41 288 192 71 95 131 149 216 191 58 29 74 32 170 35 134 4 161 -8 208 -93 39
-70 69 -105 91 -105 8 0 32 17 54 38 37 36 40 37 110 36 89 0 175 -36 233 -95
37 -38 39 -43 39 -107 0 -37 -4 -99 -8 -139 -8 -65 -7 -73 12 -92 16 -16 34
-21 74 -21 62 -1 145 -32 214 -82 80 -59 133 -81 193 -82 113 -2 203 67 387
299 133 166 230 311 334 500 135 246 184 327 257 421 76 97 242 263 337 335
177 136 476 305 725 412 352 151 798 339 1010 425 135 55 315 130 400 167 85
37 211 88 280 114 131 50 449 188 464 202 5 4 -33 53 -84 108 l-93 101 -2072
0 c-1221 0 -2075 -4 -2080 -9z"/>
<path d="M6109 10075 c-142 -52 -271 -206 -304 -362 -13 -60 -12 -76 2 -134 9
-40 13 -81 9 -102 -9 -46 -93 -174 -235 -357 -190 -244 -265 -310 -454 -398
-129 -61 -167 -87 -167 -114 0 -30 154 -179 215 -207 109 -51 223 -34 357 54
86 57 318 286 431 426 158 196 201 286 232 482 8 54 29 162 46 240 68 309 68
313 43 396 -24 82 -86 109 -175 76z"/>
<path d="M6577 9908 c-51 -14 -86 -52 -135 -145 -57 -111 -106 -264 -147 -464
-53 -262 -69 -289 -333 -572 -212 -227 -302 -339 -295 -367 14 -53 168 -156
276 -184 49 -13 64 -13 102 -2 98 30 226 155 356 350 149 222 248 459 289 691
28 159 47 233 72 275 13 22 20 50 19 76 -1 22 5 79 13 127 25 139 7 187 -76
212 -58 17 -86 18 -141 3z"/>
<path d="M5363 9609 c-136 -72 -278 -162 -372 -235 -108 -86 -116 -107 -116
-319 0 -186 14 -244 65 -265 33 -14 106 4 196 46 110 52 480 479 560 648 17
34 17 40 4 64 -19 33 -164 112 -207 112 -19 0 -70 -20 -130 -51z"/>
<path d="M6974 9481 c-72 -44 -120 -139 -184 -365 -50 -176 -129 -351 -285
-631 -40 -71 -87 -158 -104 -193 l-32 -63 36 -33 c43 -40 117 -81 162 -91 112
-23 244 107 363 358 115 243 144 394 165 852 7 154 0 178 -55 183 -21 1 -47
-5 -66 -17z"/>
<path d="M4566 9303 c-80 -28 -119 -47 -152 -76 -98 -86 -130 -205 -253 -937
-141 -835 -224 -1200 -277 -1220 -28 -11 -354 -34 -844 -60 -737 -39 -1095
-62 -1106 -71 -13 -11 -15 -33 -94 -885 -33 -357 -69 -732 -80 -834 -29 -269
-50 -565 -57 -805 -6 -217 -1 -255 33 -255 29 0 46 70 55 230 44 774 168 2182
209 2378 7 28 20 62 30 74 l18 22 118 -33 c257 -71 383 -118 412 -154 10 -11
9 -27 -2 -73 -26 -105 -54 -550 -81 -1284 -18 -496 -41 -1037 -55 -1285 -27
-469 -26 -544 8 -585 42 -50 55 11 72 340 22 441 30 609 45 985 36 925 66
1604 73 1655 l7 55 70 13 c262 47 884 126 1204 152 178 14 225 26 267 62 60
53 60 51 109 763 14 198 36 545 50 770 35 567 55 785 85 893 10 40 13 42 78
61 37 11 90 25 117 31 28 6 58 13 68 16 16 5 17 -59 17 -1251 l0 -1257 23 5
c231 57 1000 133 1907 187 450 27 749 58 774 81 16 15 -30 786 -59 984 -15
101 -25 210 -70 770 -37 453 -35 475 30 475 50 0 146 -39 176 -71 35 -37 51
-99 99 -384 90 -528 253 -1400 295 -1582 14 -57 34 -121 45 -142 18 -37 50
-59 68 -47 15 9 291 26 687 41 504 19 778 33 890 45 52 6 93 6 98 1 20 -20 37
-139 52 -361 9 -129 29 -428 45 -665 35 -504 72 -1124 100 -1670 25 -483 39
-681 51 -714 l10 -25 21 22 c41 40 37 300 -17 1187 -56 910 -146 2195 -161
2283 l-5 32 -97 0 c-144 0 -150 7 -172 205 -5 55 -13 115 -16 134 l-5 34 -167
-7 c-181 -7 -384 -27 -527 -52 -172 -30 -204 -34 -382 -54 -98 -11 -246 -23
-329 -27 l-152 -6 -6 29 c-6 29 -41 223 -201 1129 -46 264 -94 508 -106 543
-46 136 -112 194 -240 212 -126 18 -150 -6 -168 -173 -23 -205 -54 -404 -77
-493 -27 -107 -57 -308 -78 -529 -17 -169 -66 -801 -66 -839 0 -22 -7 -23
-217 -49 -414 -51 -850 -81 -1568 -107 -154 -5 -308 -12 -342 -15 l-62 -5 -4
1037 c-4 1076 -4 1098 -45 1150 -29 37 -59 36 -176 -4z"/>
<path d="M7035 6855 c-616 -37 -1211 -84 -1715 -135 -372 -38 -620 -67 -624
-71 -2 -2 0 -224 5 -494 4 -269 13 -818 18 -1220 27 -1806 54 -2645 87 -2674
10 -9 429 -64 659 -86 499 -49 1275 -15 1854 81 196 32 305 66 328 100 9 15
19 60 24 107 14 160 -26 1127 -91 2197 -17 267 -43 730 -60 1030 -29 518 -64
1032 -77 1112 -3 21 -12 43 -20 49 -21 18 -133 19 -388 4z"/>
</g>
</svg>
