<?xml version="1.0" standalone="no"?>
<!DOCTYPE svg PUBLIC "-//W3C//DTD SVG 20010904//EN"
 "http://www.w3.org/TR/2001/REC-SVG-20010904/DTD/svg10.dtd">
<svg version="1.0" xmlns="http://www.w3.org/2000/svg"
 width="1250.000000pt" height="1250.000000pt" viewBox="0 0 1250.000000 1250.000000"
 preserveAspectRatio="xMidYMid meet">

<g transform="translate(0.000000,1250.000000) scale(0.100000,-0.100000)"
fill="#000000" stroke="none">
<path d="M5164 10486 c-45 -20 -49 -33 -17 -62 35 -32 172 -99 237 -115 63
-16 79 0 64 64 -14 65 -30 91 -68 109 -43 22 -170 24 -216 4z"/>
<path d="M5173 10145 c-3 -9 -3 -34 0 -57 10 -75 91 -133 248 -177 99 -28 119
-27 119 2 -1 34 -33 98 -71 138 -28 30 -54 43 -150 73 -133 41 -137 42 -146
21z"/>
<path d="M5228 9762 c-28 -6 -22 -61 11 -114 16 -26 53 -62 82 -81 57 -39 209
-93 233 -84 20 8 21 59 1 96 -41 81 -254 199 -327 183z"/>
<path d="M5300 9311 c-17 -33 -12 -96 11 -125 12 -15 42 -37 67 -50 49 -25
232 -86 257 -86 18 0 35 31 35 65 0 69 -59 120 -206 179 -104 41 -148 46 -164
17z"/>
<path d="M5349 8904 c-10 -13 -11 -29 -1 -87 18 -105 30 -100 -266 -108 -308
-9 -352 -20 -443 -116 -59 -62 -79 -92 -79 -121 0 -31 32 -91 95 -182 120
-171 138 -234 180 -605 50 -442 139 -1108 163 -1214 8 -35 9 -35 178 -96 191
-70 299 -118 459 -207 303 -168 488 -306 625 -466 232 -269 320 -455 320 -672
0 -154 -24 -226 -115 -354 -20 -27 -34 -54 -32 -60 2 -6 26 -23 53 -37 76 -41
141 -152 159 -271 15 -100 -63 -251 -162 -314 -29 -19 -53 -41 -53 -49 0 -8
24 -42 54 -75 70 -78 87 -126 93 -271 10 -205 -41 -366 -165 -521 -77 -96
-146 -160 -322 -299 l-144 -114 364 -3 c424 -3 1221 13 1330 28 98 13 124 24
153 69 63 95 106 274 137 576 37 358 118 917 190 1313 40 220 67 399 95 632 9
74 52 387 95 695 44 308 91 650 105 760 38 295 92 676 126 879 16 99 34 243
40 320 15 174 30 217 119 337 116 156 116 196 4 369 l-45 70 -1082 0 c-1039 0
-1696 11 -1802 28 -36 6 -60 18 -85 41 -42 40 -143 92 -234 120 -82 25 -90 26
-107 5z"/>
<path d="M10050 6498 c-65 -32 -146 -115 -160 -163 -7 -23 -15 -159 -19 -318
-5 -153 -10 -280 -13 -282 -2 -3 -14 38 -26 91 -50 223 -171 369 -268 325 -13
-6 -29 -23 -34 -37 -11 -28 -8 -54 43 -319 36 -186 43 -268 24 -283 -26 -22
-47 -4 -47 40 0 41 -52 318 -100 530 -43 188 -68 238 -120 238 -33 0 -63 -31
-90 -93 -30 -67 -35 -162 -16 -287 43 -276 56 -373 52 -377 -5 -5 -72 113
-186 327 -112 210 -202 355 -220 355 -35 0 -102 -149 -101 -227 0 -62 34 -142
184 -428 l123 -235 229 -6 c127 -4 418 -9 649 -10 l419 -4 13 45 c30 98 64
285 89 485 14 116 32 236 40 268 28 109 16 126 -76 114 -115 -15 -160 -107
-250 -512 l-49 -220 8 205 c4 113 7 331 7 486 0 340 -1 343 -105 292z"/>
<path d="M3570 6424 c-195 -30 -482 -110 -710 -199 -158 -61 -428 -199 -550
-281 -288 -193 -409 -300 -503 -444 -153 -236 -209 -417 -173 -560 23 -88 54
-138 150 -236 l81 -84 1685 0 c2081 1 2477 9 2667 57 99 24 134 56 190 170 43
89 47 104 47 168 -1 78 -30 164 -104 310 -204 397 -694 750 -1323 954 -256 83
-491 129 -761 151 -186 15 -581 11 -696 -6z m502 -224 c20 -6 38 -17 41 -24
13 -34 -59 -86 -120 -86 -87 0 -98 97 -13 113 43 8 54 7 92 -3z m582 -21 c55
-43 18 -113 -77 -145 -71 -24 -89 1 -71 94 14 70 91 96 148 51z m474 -211 c62
-38 83 -124 38 -153 -30 -20 -106 -17 -116 5 -4 8 -13 38 -20 65 -7 28 -14 57
-17 66 -2 9 3 24 13 33 20 20 51 15 102 -16z m-2120 -7 c19 -24 26 -61 16 -90
-11 -31 -84 -71 -131 -71 -28 0 -33 4 -33 23 0 44 32 117 62 142 33 28 62 26
86 -4z m609 -22 c15 -5 31 -16 35 -22 14 -21 9 -102 -8 -125 -19 -28 -72 -30
-106 -3 -30 24 -82 117 -73 132 17 27 101 38 152 18z m593 -169 c60 -30 110
-79 110 -105 0 -30 -43 -81 -75 -89 -35 -9 -79 17 -99 58 -28 59 -18 156 16
156 5 0 26 -9 48 -20z"/>
<path d="M11009 6283 c-48 -111 -110 -374 -133 -562 -15 -117 -23 -138 -50
-128 -24 10 -20 90 15 297 30 181 30 210 1 243 -32 36 -124 12 -186 -49 -56
-57 -65 -87 -106 -368 -17 -115 -37 -240 -45 -278 -26 -121 -70 -108 358 -108
l372 0 93 165 c161 283 191 375 158 489 -28 97 -78 122 -136 69 -16 -16 -50
-66 -76 -113 -83 -153 -144 -219 -144 -157 0 13 16 79 35 148 42 149 43 179 9
247 -29 59 -109 152 -130 152 -8 0 -24 -21 -35 -47z"/>
<path d="M9260 5200 c-238 -7 -300 -17 -325 -53 -22 -31 -19 -121 10 -267 14
-69 34 -192 45 -275 12 -82 54 -348 95 -590 41 -242 99 -611 129 -820 31 -209
62 -413 68 -454 l13 -74 450 3 c248 1 634 6 860 9 l410 6 13 39 c21 66 60 272
87 466 89 643 150 1062 191 1316 40 249 47 316 51 485 l6 197 -494 6 c-897 10
-1381 12 -1609 6z"/>
<path d="M1589 4388 c-44 -95 -45 -148 -5 -201 58 -75 106 -85 501 -97 394
-12 2681 -12 3567 0 766 11 738 8 795 73 43 49 52 109 27 180 -24 65 -55 82
-180 98 -64 9 -741 13 -2380 16 l-2291 4 -34 -73z"/>
<path d="M1753 3837 c-106 -111 -127 -160 -126 -307 0 -185 56 -295 241 -471
139 -132 261 -217 452 -312 l165 -82 755 -3 c816 -3 2048 12 2250 28 137 11
194 25 297 71 163 73 388 255 504 409 61 79 124 204 144 285 8 32 15 91 15
131 0 88 -13 110 -143 242 l-92 92 -2191 0 -2191 0 -80 -83z"/>
<path d="M920 2496 c0 -3 55 -116 122 -251 l123 -245 5170 0 5170 0 108 213
c59 116 107 217 107 224 0 21 -71 33 -257 45 -184 11 -10543 25 -10543 14z"/>
</g>
</svg>
