<?xml version="1.0" standalone="no"?>
<!DOCTYPE svg PUBLIC "-//W3C//DTD SVG 20010904//EN"
 "http://www.w3.org/TR/2001/REC-SVG-20010904/DTD/svg10.dtd">
<svg version="1.0" xmlns="http://www.w3.org/2000/svg"
 width="944.000000pt" height="538.000000pt" viewBox="0 0 944.000000 538.000000"
 preserveAspectRatio="xMidYMid meet">

<g transform="translate(0.000000,538.000000) scale(0.100000,-0.100000)"
fill="#000000" stroke="none">
<path d="M3685 5209 c-214 -15 -397 -35 -547 -60 -128 -21 -185 -31 -228 -40
-25 -6 -63 -14 -85 -19 -806 -179 -1493 -532 -1967 -1011 -294 -298 -497 -649
-579 -999 -51 -221 -54 -520 -7 -745 117 -565 541 -1107 1170 -1497 197 -122
504 -274 683 -338 28 -10 88 -32 135 -50 81 -30 373 -115 473 -139 208 -49
262 -59 542 -101 165 -25 525 -50 717 -50 354 0 730 38 1103 112 160 32 268
58 475 119 68 19 264 87 315 109 219 92 291 124 400 180 233 120 383 215 585
370 36 27 68 50 73 50 4 0 7 -26 7 -57 0 -159 61 -214 296 -272 63 -16 221
-38 244 -34 3 0 28 3 57 7 l52 7 17 -38 c85 -183 335 -323 734 -414 45 -10
175 -44 220 -58 76 -24 120 -3 120 55 0 58 -19 67 -280 134 -236 60 -329 89
-420 132 -187 88 -290 215 -215 264 27 18 56 12 94 -17 33 -27 86 -25 105 3
25 36 19 61 -30 124 -74 95 -121 184 -222 414 -11 25 -32 74 -48 110 -86 199
-193 321 -314 363 -270 93 -337 123 -450 202 -181 127 -280 259 -280 373 0 57
27 112 55 112 8 0 43 -15 77 -33 79 -42 339 -177 568 -294 96 -50 290 -149
431 -222 141 -72 268 -131 283 -131 55 0 89 77 49 112 -18 15 -156 88 -520
275 -106 54 -193 104 -193 111 0 7 7 27 16 43 10 19 15 56 15 100 0 37 3 70 7
72 8 5 200 -9 332 -25 152 -17 220 -51 334 -164 119 -118 301 -369 466 -639
90 -149 329 -547 388 -648 54 -91 164 -247 181 -257 30 -16 59 -12 81 10 32
32 25 67 -29 144 -26 39 -67 103 -91 141 -23 39 -66 108 -95 155 -28 47 -63
106 -77 130 -25 44 -211 353 -298 495 -242 396 -504 685 -665 735 -22 7 -48
16 -57 21 -10 5 -36 9 -58 9 -52 0 -60 17 -60 127 -1 279 -114 620 -304 913
-185 284 -422 523 -750 753 -100 71 -153 105 -266 170 -138 79 -500 250 -590
277 -14 5 -62 22 -107 38 -45 17 -160 53 -255 80 -213 61 -282 78 -453 111
-443 85 -947 118 -1360 90z m665 -144 c276 -20 429 -38 655 -80 594 -110 1176
-341 1618 -642 263 -179 517 -426 692 -673 34 -49 135 -216 135 -225 0 -2 16
-37 36 -79 91 -195 131 -358 141 -575 l5 -124 -53 7 c-30 3 -99 9 -154 12 -55
3 -111 8 -125 10 -16 4 -193 172 -490 468 -429 427 -469 464 -513 476 -55 15
-119 10 -168 -14 -54 -25 -658 -634 -691 -697 -34 -62 -37 -134 -9 -196 23
-50 1011 -1037 1068 -1067 21 -10 61 -19 92 -20 l56 -2 7 -52 c11 -77 27 -106
114 -221 43 -57 85 -112 93 -122 11 -15 11 -20 0 -31 -84 -80 -350 -261 -516
-352 -463 -254 -1000 -429 -1553 -507 -229 -32 -587 -59 -800 -59 -420 0 -955
70 -1345 177 -49 13 -103 28 -120 32 -76 20 -373 125 -440 156 -16 7 -50 21
-75 31 -66 26 -290 138 -384 191 -274 157 -475 312 -682 525 -313 323 -478
634 -553 1044 -14 74 -15 408 -1 466 5 24 15 70 21 103 26 133 69 254 144 405
98 199 209 352 385 534 245 253 500 437 855 616 544 276 1147 434 1840 484
246 18 472 18 715 1z m1918 -1568 c39 -22 1002 -990 1008 -1014 7 -28 -16 -77
-39 -81 -16 -3 -156 63 -312 148 -27 15 -96 51 -152 80 l-102 52 -36 -22 c-54
-33 -121 -117 -136 -167 -15 -57 -15 -150 1 -199 31 -92 116 -208 219 -298 31
-27 57 -53 59 -57 2 -5 -28 -40 -67 -79 -66 -65 -74 -70 -113 -70 l-43 1 -502
497 c-493 487 -503 498 -503 536 0 37 9 48 153 195 83 86 229 231 323 324 178
174 191 182 242 154z m708 -1677 c29 -16 73 -36 96 -44 24 -8 81 -29 128 -46
47 -18 98 -36 114 -41 43 -13 90 -48 116 -87 22 -31 23 -36 9 -61 -13 -24 -22
-27 -100 -35 -72 -7 -91 -6 -121 8 -28 13 -163 141 -223 209 -82 94 -101 127
-77 127 2 0 28 -13 58 -30z m23 -301 c58 -58 126 -117 151 -129 60 -31 158
-36 282 -16 54 9 102 16 108 16 9 0 25 -32 59 -113 10 -24 8 -33 -9 -57 -20
-28 -21 -29 -220 -70 -25 -6 -82 -11 -127 -12 l-82 -3 -62 60 c-65 65 -240
276 -278 337 -22 36 -43 166 -33 198 3 7 26 -13 55 -46 28 -32 98 -107 156
-165z m691 -454 c15 -18 8 -88 -11 -111 -7 -9 -36 -28 -63 -42 -46 -24 -61
-27 -151 -27 -160 1 -372 61 -363 102 3 10 10 16 19 13 34 -11 217 0 315 20
119 23 214 47 222 55 9 9 19 6 32 -10z"/>
<path d="M4019 4690 c-132 -70 -141 -245 -16 -332 110 -76 333 -290 449 -429
73 -87 196 -274 250 -379 77 -149 146 -338 177 -485 50 -242 47 -569 -8 -785
-31 -119 -46 -166 -83 -259 -73 -184 -153 -325 -280 -497 -96 -128 -293 -332
-419 -434 -128 -103 -154 -131 -169 -185 -42 -150 131 -290 266 -214 118 66
423 352 565 529 254 318 436 693 498 1030 7 36 16 85 21 110 24 120 33 330 21
473 -29 331 -89 552 -231 842 -124 255 -288 483 -505 701 -119 119 -302 275
-366 312 -49 28 -120 29 -170 2z"/>
<path d="M3431 4243 c-13 -2 -43 -24 -66 -48 -47 -46 -63 -101 -52 -170 8 -52
32 -79 153 -181 62 -52 143 -129 181 -171 37 -43 76 -86 86 -97 35 -40 116
-163 160 -246 104 -194 154 -376 164 -600 9 -215 -34 -411 -136 -626 -93 -194
-244 -388 -414 -531 -148 -125 -181 -162 -193 -216 -16 -67 1 -122 52 -174 33
-32 52 -43 88 -48 96 -15 130 2 291 142 162 141 365 377 434 505 158 291 216
462 246 718 19 158 19 224 0 380 -38 322 -153 605 -358 880 -86 115 -313 345
-419 424 -70 53 -82 58 -135 61 -32 2 -69 1 -82 -2z"/>
<path d="M2795 3767 c-75 -42 -109 -129 -85 -218 9 -34 25 -55 68 -94 114
-100 228 -222 274 -291 208 -318 197 -680 -31 -994 -38 -51 -118 -133 -254
-256 -131 -119 -53 -323 123 -324 79 0 154 50 299 199 185 191 311 413 363
644 25 111 30 352 10 462 -57 297 -224 579 -465 784 -45 37 -98 78 -117 90
-49 29 -131 28 -185 -2z"/>
<path d="M2225 3327 c-52 -21 -86 -49 -104 -86 -52 -103 -37 -159 73 -266 108
-105 146 -179 146 -285 0 -105 -38 -181 -140 -280 -86 -83 -95 -96 -105 -157
-5 -34 -2 -53 18 -96 28 -61 63 -91 130 -107 73 -19 130 5 228 97 113 107 175
202 219 338 38 115 33 330 -10 440 -46 119 -116 221 -213 312 -95 89 -174 118
-242 90z"/>
</g>
</svg>
